<svg xmlns="http://www.w3.org/2000/svg" xmlns:xlink="http://www.w3.org/1999/xlink" preserveAspectRatio="xMidYMid meet" version="1.0" viewBox="0.0 0.0 450.6 205.1" zoomAndPan="magnify" style="fill: rgb(190, 154, 94);" original_string_length="1195" width="120.29789113892488px" height="54.68085960860222px"><g id="__id0_s0mfxiemve"><path d="M450.56,51.46v102.13c0,28.42-23.04,51.46-51.46,51.46H51.46C23.04,205.06,0,182.02,0,153.59V51.46 C0,23.04,23.04,0,51.46,0H399.1C427.52,0,450.56,23.04,450.56,51.46z" style="fill: rgb(255, 254, 254);"/></g><g id="__id1_s0mfxiemve"><path d="M397.91,10.13H52.65c-24.36,0-44.18,19.82-44.18,44.18v96.44c0,24.36,19.82,44.18,44.18,44.18h345.26 c24.36,0,44.18-19.82,44.18-44.18V54.31C442.09,29.95,422.27,10.13,397.91,10.13z M440.09,150.75c0,23.26-18.92,42.18-42.18,42.18 H52.65c-23.26,0-42.18-18.92-42.18-42.18V54.31c0-23.26,18.92-42.18,42.18-42.18h345.26c23.26,0,42.18,18.92,42.18,42.18V150.75z M394.98,16.84H55.58c-22.34,0-40.51,18.17-40.51,40.51v90.35c0,22.34,18.17,40.51,40.51,40.51h339.4 c22.34,0,40.51-18.17,40.51-40.51V57.35C435.49,35.02,417.32,16.84,394.98,16.84z M433.49,147.7c0,21.24-17.28,38.51-38.51,38.51 H55.58c-21.24,0-38.51-17.28-38.51-38.51V57.35c0-21.24,17.28-38.51,38.51-38.51h339.4c21.24,0,38.51,17.28,38.51,38.51V147.7z" style="fill: inherit;"/></g></svg>